<?xml version="1.0" encoding="utf-8"?>
<!-- Generator: Adobe Illustrator 28.0.0, SVG Export Plug-In . SVG Version: 6.00 Build 0)  -->
<svg version="1.1" id="レイヤー_1" xmlns="http://www.w3.org/2000/svg" xmlns:xlink="http://www.w3.org/1999/xlink" x="0px"
	 y="0px" viewBox="0 0 100 49" style="enable-background:new 0 0 100 49;" xml:space="preserve">
<style type="text/css">
	.st0{fill:#FFFFFF;}
</style>
<path class="st0" d="M2.5,0H0v11.6h7.6v-2H2.5V0z"/>
<path class="st0" d="M24.3,1.9l-2.2,6.4l-2.2-6.4h-2.6l3.3,9.7H23l3.3-9.7H24.3z"/>
<path class="st0" d="M39.6,3.4V1.9h-2.4v9.7h2.4V5.8c0.4-0.8,1.3-2,3.1-1.7V1.7C40.9,1.5,40,2.6,39.6,3.4z"/>
<path class="st0" d="M79.2,7.1c-0.3-0.5-1.1-0.9-2.2-1.4l-0.7-0.3c-0.4-0.2-0.6-0.3-0.8-0.5c-0.1-0.2-0.2-0.3-0.2-0.5
	c0-0.3,0.1-0.5,0.3-0.6c0.2-0.2,0.6-0.3,1-0.3C77.7,3.5,79,4,79,4V2c0,0-1.3-0.4-2.5-0.4c-1.2,0-2.1,0.3-2.7,0.8
	c-0.6,0.6-1,1.3-1,2.1c0,0.6,0.2,1.2,0.6,1.7c0.4,0.4,1,0.9,1.8,1.2l0.8,0.3c0.4,0.2,0.7,0.3,0.8,0.5c0.2,0.2,0.3,0.4,0.3,0.6
	c0,0.3-0.1,0.5-0.3,0.7c-0.2,0.2-0.5,0.3-1,0.3c-1.4,0-3-0.8-3-0.8v2.1c0,0,1.6,0.5,3.2,0.5c1.2,0,2.1-0.3,2.7-0.9
	c0.6-0.6,0.9-1.3,0.9-2.2C79.7,8,79.5,7.5,79.2,7.1L79.2,7.1z"/>
<path class="st0" d="M12.5,1.7c-2.8,0.1-3.9,2.9-3.9,5c0,2.1,0.9,4.4,3.2,5c2.3,0.6,4.5-0.4,4.5-0.4v-2c0,0-1.9,0.9-3.2,0.6
	c-1.3-0.3-1.8-1.3-1.9-2.4h5.2C16.4,3.8,15.6,1.6,12.5,1.7L12.5,1.7z M13.9,5.8h-2.8c0.1-1.2,0.6-2.4,1.5-2.4
	C14,3.5,13.9,5.8,13.9,5.8z"/>
<path class="st0" d="M31,1.7c-2.8,0.1-3.9,2.9-3.9,5c0,2.1,0.9,4.4,3.2,5c2.3,0.6,4.5-0.4,4.5-0.4v-2c0,0-1.9,0.9-3.2,0.6
	c-1.3-0.3-1.8-1.3-1.9-2.4h5.2C35,3.8,34.1,1.6,31,1.7L31,1.7z M32.5,5.8h-2.8c0.1-1.2,0.6-2.4,1.5-2.4C32.6,3.5,32.5,5.8,32.5,5.8z
	"/>
<path class="st0" d="M67.1,1.7c-2.8,0.1-3.9,2.9-3.9,5c0,2.1,0.9,4.4,3.2,5c2.3,0.6,4.5-0.4,4.5-0.4v-2c0,0-1.9,0.9-3.2,0.6
	c-1.3-0.3-1.8-1.3-1.9-2.4H71C71,3.8,70.2,1.6,67.1,1.7L67.1,1.7z M68.6,5.8h-2.8c0.1-1.2,0.6-2.4,1.5-2.4
	C68.7,3.5,68.6,5.8,68.6,5.8z"/>
<path class="st0" d="M48.8,10.6c0.5,1.5,2.2,1.3,3.2,1V9.7c0,0-1,0.4-1-0.5V4.7c0-1.2-0.3-2.4-1.9-2.9c-1.6-0.5-3.3,0-4.6,0.5v2
	c0,0,1.4-0.9,2.8-0.9c0.9,0,1.4,0.3,1.4,1.4v0.4c0,0-0.3,0-0.5,0c-0.8,0-2.3,0.2-3.4,1.2c-0.7,0.7-1,1.5-1,2.5
	c0,0.8,0.3,1.9,1.2,2.5C45.9,11.9,47.5,12.1,48.8,10.6L48.8,10.6z M46.6,7.5c0.4-0.3,0.9-0.4,1.6-0.4h0.5v1.9c-0.7,0.8-1.5,1-2,0.7
	c-0.5-0.3-0.6-0.7-0.6-1.1C46.1,8.1,46.3,7.8,46.6,7.5L46.6,7.5z"/>
<path class="st0" d="M59.3,1.9l-0.2,0.8c-0.8-0.8-1.5-0.9-2.3-0.9c-1.1,0-1.7,0.3-2.4,1c-0.6,0.6-1.2,1.9-1.2,3.4s0.6,3.1,1.9,3.7
	c1.3,0.6,3,0.3,3.9-1.2v0.8c0,1-0.2,1.9-1.7,2.1c-1.5,0.2-3.2-0.6-3.2-0.6v2c0.7,0.3,3.4,1,5.3,0.1c1.9-0.9,2-3.2,2-4.7V1.9H59.3z
	 M59,6.8c-0.5,0.8-1.6,1.5-2.5,1c-0.8-0.4-0.8-1.5-0.8-1.8c0-0.8,0.2-1.6,0.7-2.2C56.9,3.3,58,3.1,59,4.2V6.8L59,6.8z"/>
<path class="st0" d="M2.5,0H0v11.6h7.6v-2H2.5V0z"/>
<path class="st0" d="M24.3,1.9l-2.2,6.4l-2.2-6.4h-2.6l3.3,9.7H23l3.3-9.7H24.3z"/>
<path class="st0" d="M39.6,3.4V1.9h-2.4v9.7h2.4V5.8c0.4-0.8,1.3-2,3.1-1.7V1.7C40.9,1.5,40,2.6,39.6,3.4z"/>
<path class="st0" d="M79.2,7.1c-0.3-0.5-1.1-0.9-2.2-1.4l-0.7-0.3c-0.4-0.2-0.6-0.3-0.8-0.5c-0.1-0.2-0.2-0.3-0.2-0.5
	c0-0.3,0.1-0.5,0.3-0.6c0.2-0.2,0.6-0.3,1-0.3C77.7,3.5,79,4,79,4V2c0,0-1.3-0.4-2.5-0.4c-1.2,0-2.1,0.3-2.7,0.8
	c-0.6,0.6-1,1.3-1,2.1c0,0.6,0.2,1.2,0.6,1.7c0.4,0.4,1,0.9,1.8,1.2l0.8,0.3c0.4,0.2,0.7,0.3,0.8,0.5c0.2,0.2,0.3,0.4,0.3,0.6
	c0,0.3-0.1,0.5-0.3,0.7c-0.2,0.2-0.5,0.3-1,0.3c-1.4,0-3-0.8-3-0.8v2.1c0,0,1.6,0.5,3.2,0.5c1.2,0,2.1-0.3,2.7-0.9
	c0.6-0.6,0.9-1.3,0.9-2.2C79.7,8,79.5,7.5,79.2,7.1L79.2,7.1z"/>
<path class="st0" d="M12.5,1.7c-2.8,0.1-3.9,2.9-3.9,5c0,2.1,0.9,4.4,3.2,5c2.3,0.6,4.5-0.4,4.5-0.4v-2c0,0-1.9,0.9-3.2,0.6
	c-1.3-0.3-1.8-1.3-1.9-2.4h5.2C16.4,3.8,15.6,1.6,12.5,1.7L12.5,1.7z M13.9,5.8h-2.8c0.1-1.2,0.6-2.4,1.5-2.4
	C14,3.5,13.9,5.8,13.9,5.8z"/>
<path class="st0" d="M31,1.7c-2.8,0.1-3.9,2.9-3.9,5c0,2.1,0.9,4.4,3.2,5c2.3,0.6,4.5-0.4,4.5-0.4v-2c0,0-1.9,0.9-3.2,0.6
	c-1.3-0.3-1.8-1.3-1.9-2.4h5.2C35,3.8,34.1,1.6,31,1.7L31,1.7z M32.5,5.8h-2.8c0.1-1.2,0.6-2.4,1.5-2.4C32.6,3.5,32.5,5.8,32.5,5.8z
	"/>
<path class="st0" d="M67.1,1.7c-2.8,0.1-3.9,2.9-3.9,5c0,2.1,0.9,4.4,3.2,5c2.3,0.6,4.5-0.4,4.5-0.4v-2c0,0-1.9,0.9-3.2,0.6
	c-1.3-0.3-1.8-1.3-1.9-2.4H71C71,3.8,70.2,1.6,67.1,1.7L67.1,1.7z M68.6,5.8h-2.8c0.1-1.2,0.6-2.4,1.5-2.4
	C68.7,3.5,68.6,5.8,68.6,5.8z"/>
<path class="st0" d="M48.8,10.6c0.5,1.5,2.2,1.3,3.2,1V9.7c0,0-1,0.4-1-0.5V4.7c0-1.2-0.3-2.4-1.9-2.9c-1.6-0.5-3.3,0-4.6,0.5v2
	c0,0,1.4-0.9,2.8-0.9c0.9,0,1.4,0.3,1.4,1.4v0.4c0,0-0.3,0-0.5,0c-0.8,0-2.3,0.2-3.4,1.2c-0.7,0.7-1,1.5-1,2.5
	c0,0.8,0.3,1.9,1.2,2.5C45.9,11.9,47.5,12.1,48.8,10.6L48.8,10.6z M46.6,7.5c0.4-0.3,0.9-0.4,1.6-0.4h0.5v1.9c-0.7,0.8-1.5,1-2,0.7
	c-0.5-0.3-0.6-0.7-0.6-1.1C46.1,8.1,46.3,7.8,46.6,7.5L46.6,7.5z"/>
<path class="st0" d="M59.3,1.9l-0.2,0.8c-0.8-0.8-1.5-0.9-2.3-0.9c-1.1,0-1.7,0.3-2.4,1c-0.6,0.6-1.2,1.9-1.2,3.4s0.6,3.1,1.9,3.7
	c1.3,0.6,3,0.3,3.9-1.2v0.8c0,1-0.2,1.9-1.7,2.1c-1.5,0.2-3.2-0.6-3.2-0.6v2c0.7,0.3,3.4,1,5.3,0.1c1.9-0.9,2-3.2,2-4.7V1.9H59.3z
	 M59,6.8c-0.5,0.8-1.6,1.5-2.5,1c-0.8-0.4-0.8-1.5-0.8-1.8c0-0.8,0.2-1.6,0.7-2.2C56.9,3.3,58,3.1,59,4.2V6.8L59,6.8z"/>
<path class="st0" d="M7.6,23.2c-1.6,0-2.8,0.8-2.9,2.4c-0.1,1.6,1.3,2.4,4,3.2c3.7,1.1,6.3,3.4,6.3,7.1c0,3.7-2.3,6.9-7.1,7.1
	c-3.6,0.2-6.9-1.6-7.9-4.4l3.6-1.8C4.7,38.2,5.9,39,7.7,39c2.2,0,3.2-1.6,3.2-3c0-1.6-1.6-3-4.9-3.9c-4.2-1.2-5.2-3.9-5.1-6.5
	c0.2-3.1,2.3-6.2,6.7-6.2c2.4,0,4.6,1.2,6,3.1l-2.8,2.4C10.9,24.9,10,23.3,7.6,23.2L7.6,23.2z"/>
<path class="st0" d="M15.9,26h2.5v-3.6h3.8V26h3v3.9h-3v6.6c0,1.7,0.3,2.4,1.7,2.4h1.3v3.7h-1.7c-3.6,0-5.1-1.1-5.1-5.4v-7.3h-2.5
	V26z"/>
<path class="st0" d="M32.7,32.6h2.9v-1c0-1.9-0.8-2.5-2.6-2.5c-1,0-2.1,0.6-2.7,1.6l-3.1-2.1c1.6-2.2,3.2-3,6.1-3c3.8,0,6,1.2,6,6
	v10.9h-3.7v-1.5c-0.6,1.1-1.5,1.8-3.2,1.8c-3.1,0-5.2-1.8-5.2-5.2C27.3,34.2,29.6,32.6,32.7,32.6L32.7,32.6z M35.7,35.7h-2.5
	c-1.5,0-2.2,0.6-2.2,1.9c0,1.3,0.9,1.9,2.2,1.9c1.7,0,2.5-0.8,2.5-3.1V35.7z"/>
<path class="st0" d="M50,23.4h-0.7c-1.1,0-1.7,0.9-1.7,2.3V26h2.8v3.9h-2.8v12.6h-3.7V29.9h-2.5V26h2.5v-0.9c0-4.3,2.3-5.4,5-5.4
	h1.1L50,23.4L50,23.4z"/>
<path class="st0" d="M61.2,23.4h-0.7c-1.1,0-1.7,0.9-1.7,2.3V26h2.8v3.9h-2.8v12.6h-3.7V29.9h-2.5V26h2.5v-0.9c0-4.3,2.3-5.4,5-5.4
	h1.1L61.2,23.4L61.2,23.4z"/>
<path class="st0" d="M64.6,19.7h4.1v4.1h-4.1V19.7z M64.7,26h3.8v16.6h-3.8V26z"/>
<path class="st0" d="M72.1,26h3.7v1.4c0.6-0.8,1.7-1.7,3.4-1.7c3,0,5.4,1.6,5.4,6.5v10.4h-3.7v-9.7c0-2.6-0.8-3.5-2.4-3.5
	c-1.7,0-2.6,1.3-2.6,3.5v9.8h-3.8L72.1,26L72.1,26z"/>
<path class="st0" d="M96.2,26h3.8v16.3c0,4.8-3.1,6.7-6.5,6.7c-1.9,0-5-0.9-6.3-2.9l3.1-2.2c0.5,0.9,1.5,1.6,2.8,1.6
	c2,0,3.1-1,3.1-3.3v-0.5c-0.8,0.8-1.8,1.2-3.2,1.2c-3.9,0-5.9-3.1-5.9-7.5v-2.3c0-4.9,2.3-7.4,5.8-7.4c1.3,0,2.4,0.4,3.2,1.2
	L96.2,26L96.2,26z M96.3,35.4v-2.1c0-2.6-0.8-4.1-2.6-4.1S91,30.7,91,33.4v1.7c0,2.4,0.6,4.2,2.6,4.2C95.6,39.3,96.3,37.6,96.3,35.4
	z"/>
</svg>
