<svg width="100" height="49" viewBox="0 0 100 49" fill="none" xmlns="http://www.w3.org/2000/svg">
<path d="M2.52905 0H0V11.5858H7.58715V9.58647H2.52905V0Z" fill="white"/>
<path d="M24.3165 1.87964L22.1292 8.30479L19.9248 1.87964H17.3616L20.6596 11.5857H23.0178L26.3158 1.87964H24.3165Z" fill="white"/>
<path d="M39.5762 3.41767V1.89682H37.1326V11.6029H39.5762V5.81001C40.0034 5.02396 40.9091 3.84487 42.6692 4.1012V1.70885C40.892 1.45253 40.0034 2.63161 39.5762 3.41767Z" fill="white"/>
<path d="M79.2037 7.05758C78.8619 6.5962 78.1442 6.1519 77.0335 5.67344L76.3671 5.38294C75.9911 5.21206 75.7177 5.05826 75.581 4.88738C75.4443 4.73359 75.3759 4.54562 75.3759 4.34056C75.3759 4.08424 75.4785 3.86209 75.7006 3.7083C75.9228 3.53741 76.2645 3.45197 76.7088 3.45197C77.6999 3.45197 79.0499 4.01588 79.0499 4.01588V2.01657C79.0499 2.01657 77.7341 1.65771 76.5209 1.65771C75.3076 1.65771 74.4361 1.93113 73.8551 2.49504C73.2228 3.09312 72.8982 3.79374 72.8982 4.59688C72.8982 5.24623 73.1203 5.84432 73.5475 6.32279C73.9405 6.76708 74.5386 7.1772 75.3247 7.53605L76.0936 7.87781C76.4867 8.04869 76.7601 8.21957 76.931 8.39046C77.1019 8.56134 77.1873 8.7664 77.1873 9.00563C77.1873 9.29613 77.0677 9.51828 76.8455 9.70625C76.6063 9.89422 76.2987 9.99674 75.8886 9.99674C74.5044 9.99674 72.864 9.15942 72.864 9.15942V11.2271C72.864 11.2271 74.419 11.7739 76.0424 11.7739C77.2215 11.7739 78.1442 11.4663 78.7594 10.8341C79.3746 10.2189 79.6993 9.4841 79.6993 8.66387C79.6993 8.0316 79.5284 7.48478 79.1866 7.0234L79.2037 7.05758Z" fill="white"/>
<path d="M12.4573 1.6746C9.67192 1.72587 8.59537 4.56251 8.59537 6.66435C8.59537 8.7662 9.44978 11.0389 11.7909 11.6199C14.1319 12.2009 16.3363 11.244 16.3363 11.244V9.24467C16.3363 9.24467 14.3883 10.1333 13.0896 9.85984C11.8079 9.60352 11.2611 8.57823 11.1586 7.50167H16.3363C16.3876 3.8448 15.5503 1.58916 12.4744 1.65752L12.4573 1.6746ZM13.9269 5.82703H11.0902C11.2099 4.57959 11.6883 3.45177 12.594 3.45177C14.0465 3.45177 13.9269 5.82703 13.9269 5.82703Z" fill="white"/>
<path d="M31.0321 1.6746C28.2468 1.72587 27.1702 4.56251 27.1702 6.66435C27.1702 8.7662 28.0246 11.0389 30.3657 11.6199C32.7068 12.2009 34.9111 11.244 34.9111 11.244V9.24467C34.9111 9.24467 32.9631 10.1333 31.6644 9.85984C30.3828 9.60352 29.836 8.57823 29.7334 7.50167H34.9111C34.9624 3.8448 34.1251 1.58916 31.0492 1.65752L31.0321 1.6746ZM32.4846 5.82703H29.648C29.7676 4.57959 30.2461 3.45177 31.1517 3.45177C32.6042 3.45177 32.4846 5.82703 32.4846 5.82703Z" fill="white"/>
<path d="M67.1053 1.6746C64.3199 1.72587 63.2433 4.56251 63.2433 6.66435C63.2433 8.7662 64.0977 11.0389 66.4388 11.6199C68.7799 12.2009 70.9843 11.244 70.9843 11.244V9.24467C70.9843 9.24467 69.0362 10.1333 67.7375 9.85984C66.4559 9.60352 65.9091 8.57823 65.8066 7.50167H70.9843C71.0355 3.8448 70.1982 1.58916 67.1223 1.65752L67.1053 1.6746ZM68.5578 5.82703H65.7211C65.8407 4.57959 66.3192 3.45177 67.2249 3.45177C68.6774 3.45177 68.5578 5.82703 68.5578 5.82703Z" fill="white"/>
<path d="M48.8038 10.5775C49.2652 12.1155 50.957 11.9275 51.9822 11.5345V9.74021C51.9822 9.74021 51.0253 10.1503 51.0253 9.24466V4.73338C51.0253 3.55429 50.6835 2.32395 49.0773 1.86257C47.471 1.40118 45.728 1.82839 44.5147 2.35812V4.34035C44.5147 4.34035 45.9159 3.41759 47.2659 3.43468C48.1374 3.43468 48.7013 3.75935 48.7013 4.80173V5.21185C48.7013 5.21185 48.4108 5.21185 48.1887 5.21185C47.3684 5.22894 45.8647 5.41691 44.8223 6.45928C44.1388 7.12572 43.7799 7.99722 43.7799 8.95416C43.7799 9.74021 44.1046 10.8851 45.0103 11.4319C45.8647 11.9446 47.5222 12.0813 48.8038 10.5604V10.5775ZM46.6166 7.50166C46.9754 7.21116 47.5051 7.05737 48.2399 7.05737H48.7013V8.91998C47.9836 9.70604 47.1805 9.91109 46.6849 9.63768C46.2235 9.38136 46.1039 8.91998 46.1039 8.56113C46.1039 8.13393 46.2748 7.77507 46.6166 7.48457V7.50166Z" fill="white"/>
<path d="M59.2789 1.86253L59.0738 2.61441C58.2878 1.84544 57.5701 1.67456 56.8011 1.67456C55.6904 1.67456 55.0581 1.99924 54.4088 2.66567C53.7594 3.31503 53.2126 4.59664 53.2126 6.1004C53.2126 7.60416 53.8107 9.24462 55.1265 9.80853C56.4423 10.3724 58.1511 10.1332 59.0226 8.57818V9.34715C59.0226 10.3383 58.8346 11.2439 57.3138 11.449C55.7929 11.6541 54.1183 10.8167 54.1183 10.8167V12.8331C54.8531 13.0895 57.4846 13.8584 59.4156 12.9186C61.3466 11.9958 61.4149 9.72309 61.4149 8.20224V1.86253H59.2789ZM59.0226 6.83519C58.4928 7.63833 57.4163 8.32186 56.5619 7.84339C55.7587 7.3991 55.7416 6.30546 55.7416 5.99787C55.7416 5.21181 55.9296 4.3574 56.4252 3.84476C56.9207 3.33211 57.9973 3.07579 59.0226 4.2207V6.85228V6.83519Z" fill="white"/>
<path d="M2.52905 0H0V11.5858H7.58715V9.58647H2.52905V0Z" fill="white"/>
<path d="M24.3165 1.87964L22.1292 8.30479L19.9248 1.87964H17.3616L20.6596 11.5857H23.0178L26.3158 1.87964H24.3165Z" fill="white"/>
<path d="M39.5762 3.41767V1.89682H37.1326V11.6029H39.5762V5.81001C40.0034 5.02396 40.9091 3.84487 42.6692 4.1012V1.70885C40.892 1.45253 40.0034 2.63161 39.5762 3.41767Z" fill="white"/>
<path d="M79.2037 7.05758C78.8619 6.5962 78.1442 6.1519 77.0335 5.67344L76.3671 5.38294C75.9911 5.21206 75.7177 5.05826 75.581 4.88738C75.4443 4.73359 75.3759 4.54562 75.3759 4.34056C75.3759 4.08424 75.4785 3.86209 75.7006 3.7083C75.9228 3.53741 76.2645 3.45197 76.7088 3.45197C77.6999 3.45197 79.0499 4.01588 79.0499 4.01588V2.01657C79.0499 2.01657 77.7341 1.65771 76.5209 1.65771C75.3076 1.65771 74.4361 1.93113 73.8551 2.49504C73.2228 3.09312 72.8982 3.79374 72.8982 4.59688C72.8982 5.24623 73.1203 5.84432 73.5475 6.32279C73.9405 6.76708 74.5386 7.1772 75.3247 7.53605L76.0936 7.87781C76.4867 8.04869 76.7601 8.21957 76.931 8.39046C77.1019 8.56134 77.1873 8.7664 77.1873 9.00563C77.1873 9.29613 77.0677 9.51828 76.8455 9.70625C76.6063 9.89422 76.2987 9.99674 75.8886 9.99674C74.5044 9.99674 72.864 9.15942 72.864 9.15942V11.2271C72.864 11.2271 74.419 11.7739 76.0424 11.7739C77.2215 11.7739 78.1442 11.4663 78.7594 10.8341C79.3746 10.2189 79.6993 9.4841 79.6993 8.66387C79.6993 8.0316 79.5284 7.48478 79.1866 7.0234L79.2037 7.05758Z" fill="white"/>
<path d="M12.4573 1.6746C9.67192 1.72587 8.59537 4.56251 8.59537 6.66435C8.59537 8.7662 9.44978 11.0389 11.7909 11.6199C14.1319 12.2009 16.3363 11.244 16.3363 11.244V9.24467C16.3363 9.24467 14.3883 10.1333 13.0896 9.85984C11.8079 9.60352 11.2611 8.57823 11.1586 7.50167H16.3363C16.3876 3.8448 15.5503 1.58916 12.4744 1.65752L12.4573 1.6746ZM13.9269 5.82703H11.0902C11.2099 4.57959 11.6883 3.45177 12.594 3.45177C14.0465 3.45177 13.9269 5.82703 13.9269 5.82703Z" fill="white"/>
<path d="M31.0321 1.6746C28.2468 1.72587 27.1702 4.56251 27.1702 6.66435C27.1702 8.7662 28.0246 11.0389 30.3657 11.6199C32.7068 12.2009 34.9111 11.244 34.9111 11.244V9.24467C34.9111 9.24467 32.9631 10.1333 31.6644 9.85984C30.3828 9.60352 29.836 8.57823 29.7334 7.50167H34.9111C34.9624 3.8448 34.1251 1.58916 31.0492 1.65752L31.0321 1.6746ZM32.4846 5.82703H29.648C29.7676 4.57959 30.2461 3.45177 31.1517 3.45177C32.6042 3.45177 32.4846 5.82703 32.4846 5.82703Z" fill="white"/>
<path d="M67.1053 1.6746C64.3199 1.72587 63.2433 4.56251 63.2433 6.66435C63.2433 8.7662 64.0977 11.0389 66.4388 11.6199C68.7799 12.2009 70.9843 11.244 70.9843 11.244V9.24467C70.9843 9.24467 69.0362 10.1333 67.7375 9.85984C66.4559 9.60352 65.9091 8.57823 65.8066 7.50167H70.9843C71.0355 3.8448 70.1982 1.58916 67.1223 1.65752L67.1053 1.6746ZM68.5578 5.82703H65.7211C65.8407 4.57959 66.3192 3.45177 67.2249 3.45177C68.6774 3.45177 68.5578 5.82703 68.5578 5.82703Z" fill="white"/>
<path d="M48.8038 10.5775C49.2652 12.1155 50.957 11.9275 51.9822 11.5345V9.74021C51.9822 9.74021 51.0253 10.1503 51.0253 9.24466V4.73338C51.0253 3.55429 50.6835 2.32395 49.0773 1.86257C47.471 1.40118 45.728 1.82839 44.5147 2.35812V4.34035C44.5147 4.34035 45.9159 3.41759 47.2659 3.43468C48.1374 3.43468 48.7013 3.75935 48.7013 4.80173V5.21185C48.7013 5.21185 48.4108 5.21185 48.1887 5.21185C47.3684 5.22894 45.8647 5.41691 44.8223 6.45928C44.1388 7.12572 43.7799 7.99722 43.7799 8.95416C43.7799 9.74021 44.1046 10.8851 45.0103 11.4319C45.8647 11.9446 47.5222 12.0813 48.8038 10.5604V10.5775ZM46.6166 7.50166C46.9754 7.21116 47.5051 7.05737 48.2399 7.05737H48.7013V8.91998C47.9836 9.70604 47.1805 9.91109 46.6849 9.63768C46.2235 9.38136 46.1039 8.91998 46.1039 8.56113C46.1039 8.13393 46.2748 7.77507 46.6166 7.48457V7.50166Z" fill="white"/>
<path d="M59.2789 1.86253L59.0738 2.61441C58.2878 1.84544 57.5701 1.67456 56.8011 1.67456C55.6904 1.67456 55.0581 1.99924 54.4088 2.66567C53.7594 3.31503 53.2126 4.59664 53.2126 6.1004C53.2126 7.60416 53.8107 9.24462 55.1265 9.80853C56.4423 10.3724 58.1511 10.1332 59.0226 8.57818V9.34715C59.0226 10.3383 58.8346 11.2439 57.3138 11.449C55.7929 11.6541 54.1183 10.8167 54.1183 10.8167V12.8331C54.8531 13.0895 57.4846 13.8584 59.4156 12.9186C61.3466 11.9958 61.4149 9.72309 61.4149 8.20224V1.86253H59.2789ZM59.0226 6.83519C58.4928 7.63833 57.4163 8.32186 56.5619 7.84339C55.7587 7.3991 55.7416 6.30546 55.7416 5.99787C55.7416 5.21181 55.9296 4.3574 56.4252 3.84476C56.9207 3.33211 57.9973 3.07579 59.0226 4.2207V6.85228V6.83519Z" fill="white"/>
<path d="M7.62132 23.2051C6.01504 23.1709 4.87013 23.9911 4.7676 25.5803C4.66507 27.1695 6.0663 27.9385 8.78332 28.7587C12.4744 29.8524 15.0547 32.1764 15.0547 35.8503C15.0547 39.5243 12.7136 42.7198 7.946 42.9248C4.37457 43.0786 1.07655 41.3015 0 38.5161L3.57143 36.7218C4.66507 38.2427 5.94668 39.0116 7.67259 39.0116C9.84279 39.0116 10.8339 37.4566 10.8339 36.0554C10.8339 34.4662 9.27888 33.0991 5.96377 32.108C1.77717 30.8606 0.717703 28.229 0.854409 25.6487C1.0082 22.5899 3.12714 19.4286 7.60424 19.4286C9.99658 19.4286 12.2522 20.6589 13.6364 22.5215L10.8852 24.8968C10.8852 24.8968 9.99658 23.2734 7.63841 23.2222L7.62132 23.2051Z" fill="white"/>
<path d="M15.8749 25.9734H18.3356V22.3507H22.095V25.9734H25.0513V29.9208H22.095V36.5168C22.095 38.1744 22.3855 38.875 23.7867 38.875H25.0513V42.6002H23.3937C19.8223 42.6002 18.3356 41.4724 18.3356 37.2003V29.9379H15.8749V25.9734Z" fill="white"/>
<path d="M32.7409 32.6378H35.663V31.6808C35.663 29.8182 34.8599 29.2201 33.0314 29.2201C32.0745 29.2201 30.9125 29.8182 30.3486 30.8093L27.2727 28.6733C28.8961 26.4518 30.5195 25.717 33.3732 25.717C37.1839 25.717 39.337 26.9645 39.3541 31.715V42.6002H35.663V41.1306C35.0649 42.2584 34.1934 42.8907 32.4675 42.8907C29.3916 42.8907 27.2727 41.0622 27.2556 37.6788C27.2556 34.1586 29.6138 32.6377 32.7238 32.6207L32.7409 32.6378ZM35.663 35.7478H33.1852C31.6473 35.7478 30.9638 36.3117 30.9638 37.6104C30.9638 38.8749 31.8182 39.473 33.1169 39.473C34.8257 39.473 35.663 38.6357 35.663 36.3801V35.7478Z" fill="white"/>
<path d="M50.0342 23.4272H49.3165C48.1716 23.4272 47.6418 24.2817 47.6418 25.7512V25.9905H50.4614V29.9378H47.6589V42.5831H43.9166V29.9378H41.4559V25.9905H43.9166V25.1019C43.9166 20.8469 46.2577 19.6849 48.9576 19.6849H50.0684V23.4272H50.0342Z" fill="white"/>
<path d="M61.244 23.4272H60.5263C59.3814 23.4272 58.8517 24.2817 58.8517 25.7512V25.9905H61.6712V29.9378H58.8688V42.5831H55.1265V29.9378H52.6658V25.9905H55.1265V25.1019C55.1265 20.8469 57.4675 19.6849 60.1675 19.6849H61.2782V23.4272H61.244Z" fill="white"/>
<path d="M64.5591 19.6677H68.6432V23.786H64.5591V19.6677ZM64.7129 25.9733H68.4894V42.5659H64.7129V25.9733Z" fill="white"/>
<path d="M72.095 25.9734H75.7861V27.3575C76.35 26.5202 77.5291 25.6658 79.1866 25.6658C82.177 25.6658 84.6036 27.255 84.6036 32.1764V42.566H80.8613V32.8428C80.8613 30.2454 80.0239 29.3226 78.486 29.3226C76.743 29.3226 75.8886 30.6213 75.8886 32.8086V42.566H72.1121V25.9734H72.095Z" fill="white"/>
<path d="M96.2406 25.9563H100V42.2242C100 46.9918 96.907 48.9399 93.5065 48.9399C91.5926 48.9399 88.4996 48.0855 87.2351 46.0861L90.311 43.933C90.7724 44.8387 91.8148 45.5051 93.1476 45.5051C95.1811 45.5051 96.2406 44.5482 96.2406 42.2242V41.6945C95.4375 42.4634 94.4122 42.8565 93.0793 42.8565C89.2003 42.8565 87.218 39.7806 87.218 35.3548V33.0991C87.218 28.2461 89.542 25.6658 93.0622 25.6658C94.3951 25.6658 95.4204 26.0588 96.2235 26.8278V25.9734L96.2406 25.9563ZM96.2577 35.4402V33.3554C96.2577 30.7068 95.4887 29.2372 93.6261 29.2372C91.7635 29.2372 90.9945 30.7068 90.9945 33.3554V35.0814C90.9945 37.4737 91.5926 39.268 93.6261 39.268C95.6425 39.268 96.2577 37.6446 96.2577 35.4402Z" fill="white"/>
</svg>
