<svg width="95" height="47" viewBox="0 0 95 47" fill="none" xmlns="http://www.w3.org/2000/svg">
<g clip-path="url(#clip0_1627_243)">
<path d="M3.61835 0.5H1.21693V11.5011H8.42117V9.60264H3.61835V0.5Z" fill="#1F3134"/>
<path d="M24.3062 2.28467L22.2293 8.38555L20.1362 2.28467H17.7023L20.8339 11.5009H23.073L26.2046 2.28467H24.3062Z" fill="#1F3134"/>
<path d="M38.7958 3.74539V2.3013H36.4755V11.5175H38.7958V6.017C39.2014 5.27061 40.0614 4.15104 41.7326 4.39442V2.12282C40.0451 1.87943 39.2014 2.99901 38.7958 3.74539Z" fill="#1F3134"/>
<path d="M76.4233 7.20107C76.0988 6.76297 75.4173 6.3411 74.3626 5.88678L73.7298 5.61094C73.3728 5.44869 73.1132 5.30265 72.9834 5.1404C72.8536 4.99436 72.7887 4.81588 72.7887 4.62117C72.7887 4.37779 72.8861 4.16685 73.097 4.02082C73.3079 3.85856 73.6324 3.77743 74.0543 3.77743C74.9954 3.77743 76.2772 4.31288 76.2772 4.31288V2.41447C76.2772 2.41447 75.0279 2.07373 73.8758 2.07373C72.7238 2.07373 71.8963 2.33334 71.3446 2.86879C70.7443 3.43669 70.436 4.10195 70.436 4.86456C70.436 5.48114 70.6469 6.04904 71.0526 6.50336C71.4257 6.92523 71.9936 7.31465 72.74 7.65539L73.4702 7.9799C73.8434 8.14216 74.103 8.30442 74.2652 8.46667C74.4275 8.62893 74.5086 8.82364 74.5086 9.0508C74.5086 9.32664 74.3951 9.53757 74.1841 9.71606C73.957 9.89454 73.6649 9.9919 73.2755 9.9919C71.9612 9.9919 70.4035 9.19683 70.4035 9.19683V11.1601C70.4035 11.1601 71.8801 11.6794 73.4215 11.6794C74.5411 11.6794 75.4173 11.3873 76.0014 10.787C76.5855 10.2028 76.8938 9.50512 76.8938 8.72629C76.8938 8.12594 76.7316 7.60671 76.407 7.16862L76.4233 7.20107Z" fill="#1F3134"/>
<path d="M13.0455 2.08993C10.4007 2.1386 9.37848 4.83208 9.37848 6.82784C9.37848 8.82361 10.1898 10.9816 12.4127 11.5333C14.6356 12.085 16.7287 11.1763 16.7287 11.1763V9.27793C16.7287 9.27793 14.879 10.1217 13.6459 9.86206C12.4289 9.61867 11.9097 8.64513 11.8123 7.6229H16.7287C16.7774 4.1506 15.9824 2.0088 13.0617 2.0737L13.0455 2.08993ZM14.4409 6.03278H11.7474C11.861 4.8483 12.3153 3.7774 13.1753 3.7774C14.5545 3.7774 14.4409 6.03278 14.4409 6.03278Z" fill="#1F3134"/>
<path d="M30.6829 2.08993C28.0381 2.1386 27.0159 4.83208 27.0159 6.82784C27.0159 8.82361 27.8272 10.9816 30.0501 11.5333C32.273 12.085 34.3661 11.1763 34.3661 11.1763V9.27793C34.3661 9.27793 32.5164 10.1217 31.2832 9.86206C30.0663 9.61867 29.5471 8.64513 29.4497 7.6229H34.3661C34.4148 4.1506 33.6197 2.0088 30.6991 2.0737L30.6829 2.08993ZM32.0621 6.03278H29.3686C29.4822 4.8483 29.9365 3.7774 30.7965 3.7774C32.1757 3.7774 32.0621 6.03278 32.0621 6.03278Z" fill="#1F3134"/>
<path d="M64.9354 2.08993C62.2906 2.1386 61.2684 4.83208 61.2684 6.82784C61.2684 8.82361 62.0797 10.9816 64.3026 11.5333C66.5256 12.085 68.6187 11.1763 68.6187 11.1763V9.27793C68.6187 9.27793 66.7689 10.1217 65.5358 9.86206C64.3189 9.61867 63.7996 8.64513 63.7023 7.6229H68.6187C68.6674 4.1506 67.8723 2.0088 64.9517 2.0737L64.9354 2.08993ZM66.3146 6.03278H63.6212C63.7347 4.8483 64.1891 3.7774 65.049 3.7774C66.4282 3.7774 66.3146 6.03278 66.3146 6.03278Z" fill="#1F3134"/>
<path d="M47.5577 10.5438C47.9958 12.0041 49.6021 11.8256 50.5757 11.4524V9.74873C50.5757 9.74873 49.667 10.1381 49.667 9.27818V4.99459C49.667 3.87501 49.3425 2.70676 47.8173 2.26866C46.2921 1.83057 44.637 2.23621 43.485 2.73921V4.62139C43.485 4.62139 44.8155 3.7452 46.0973 3.76143C46.9249 3.76143 47.4603 4.06972 47.4603 5.05949V5.44891C47.4603 5.44891 47.1845 5.44891 46.9735 5.44891C46.1947 5.46513 44.7668 5.64362 43.7771 6.63339C43.128 7.26619 42.7873 8.0937 42.7873 9.00235C42.7873 9.74873 43.0956 10.8359 43.9555 11.3551C44.7668 11.8419 46.3407 11.9717 47.5577 10.5276V10.5438ZM45.4808 7.62316C45.8215 7.34732 46.3245 7.20129 47.0222 7.20129H47.4603V8.96989C46.7788 9.71628 46.0162 9.91099 45.5457 9.65138C45.1076 9.40799 44.994 8.9699 44.994 8.62915C44.994 8.22351 45.1563 7.88277 45.4808 7.60693V7.62316Z" fill="#1F3134"/>
<path d="M57.5041 2.26882L57.3093 2.98275C56.563 2.25259 55.8815 2.09033 55.1513 2.09033C54.0966 2.09033 53.4963 2.39862 52.8797 3.03143C52.2631 3.648 51.7439 4.86494 51.7439 6.2928C51.7439 7.72067 52.3118 9.27834 53.5612 9.81379C54.8106 10.3492 56.4332 10.1221 57.2607 8.64554V9.37569C57.2607 10.3168 57.0822 11.1768 55.6381 11.3715C54.194 11.5662 52.6039 10.7711 52.6039 10.7711V12.6857C53.3016 12.9291 55.8004 13.6593 57.6339 12.7669C59.4674 11.8907 59.5323 9.73266 59.5323 8.28857V2.26882H57.5041ZM57.2607 6.99051C56.7577 7.75312 55.7354 8.40215 54.9242 7.94783C54.1615 7.52596 54.1453 6.48751 54.1453 6.19545C54.1453 5.44906 54.3238 4.63778 54.7944 4.151C55.2649 3.66423 56.2871 3.42084 57.2607 4.50797V7.00674V6.99051Z" fill="#1F3134"/>
<path d="M3.61835 0.5H1.21693V11.5011H8.42117V9.60264H3.61835V0.5Z" fill="#1F3134"/>
<path d="M24.3062 2.28467L22.2293 8.38555L20.1362 2.28467H17.7023L20.8339 11.5009H23.073L26.2046 2.28467H24.3062Z" fill="#1F3134"/>
<path d="M38.7958 3.74539V2.3013H36.4755V11.5175H38.7958V6.017C39.2014 5.27061 40.0614 4.15104 41.7326 4.39442V2.12282C40.0451 1.87943 39.2014 2.99901 38.7958 3.74539Z" fill="#1F3134"/>
<path d="M76.4233 7.20107C76.0988 6.76297 75.4173 6.3411 74.3626 5.88678L73.7298 5.61094C73.3728 5.44869 73.1132 5.30265 72.9834 5.1404C72.8536 4.99436 72.7887 4.81588 72.7887 4.62117C72.7887 4.37779 72.8861 4.16685 73.097 4.02082C73.3079 3.85856 73.6324 3.77743 74.0543 3.77743C74.9954 3.77743 76.2772 4.31288 76.2772 4.31288V2.41447C76.2772 2.41447 75.0279 2.07373 73.8758 2.07373C72.7238 2.07373 71.8963 2.33334 71.3446 2.86879C70.7443 3.43669 70.436 4.10195 70.436 4.86456C70.436 5.48114 70.6469 6.04904 71.0526 6.50336C71.4257 6.92523 71.9936 7.31465 72.74 7.65539L73.4702 7.9799C73.8434 8.14216 74.103 8.30442 74.2652 8.46667C74.4275 8.62893 74.5086 8.82364 74.5086 9.0508C74.5086 9.32664 74.3951 9.53757 74.1841 9.71606C73.957 9.89454 73.6649 9.9919 73.2755 9.9919C71.9612 9.9919 70.4035 9.19683 70.4035 9.19683V11.1601C70.4035 11.1601 71.8801 11.6794 73.4215 11.6794C74.5411 11.6794 75.4173 11.3873 76.0014 10.787C76.5855 10.2028 76.8938 9.50512 76.8938 8.72629C76.8938 8.12594 76.7316 7.60671 76.407 7.16862L76.4233 7.20107Z" fill="#1F3134"/>
<path d="M13.0455 2.08993C10.4007 2.1386 9.37848 4.83208 9.37848 6.82784C9.37848 8.82361 10.1898 10.9816 12.4127 11.5333C14.6356 12.085 16.7287 11.1763 16.7287 11.1763V9.27793C16.7287 9.27793 14.879 10.1217 13.6459 9.86206C12.4289 9.61867 11.9097 8.64513 11.8123 7.6229H16.7287C16.7774 4.1506 15.9824 2.0088 13.0617 2.0737L13.0455 2.08993ZM14.4409 6.03278H11.7474C11.861 4.8483 12.3153 3.7774 13.1753 3.7774C14.5545 3.7774 14.4409 6.03278 14.4409 6.03278Z" fill="#1F3134"/>
<path d="M30.6829 2.08993C28.0381 2.1386 27.0159 4.83208 27.0159 6.82784C27.0159 8.82361 27.8272 10.9816 30.0501 11.5333C32.273 12.085 34.3661 11.1763 34.3661 11.1763V9.27793C34.3661 9.27793 32.5164 10.1217 31.2832 9.86206C30.0663 9.61867 29.5471 8.64513 29.4497 7.6229H34.3661C34.4148 4.1506 33.6197 2.0088 30.6991 2.0737L30.6829 2.08993ZM32.0621 6.03278H29.3686C29.4822 4.8483 29.9365 3.7774 30.7965 3.7774C32.1757 3.7774 32.0621 6.03278 32.0621 6.03278Z" fill="#1F3134"/>
<path d="M64.9354 2.08993C62.2906 2.1386 61.2684 4.83208 61.2684 6.82784C61.2684 8.82361 62.0797 10.9816 64.3026 11.5333C66.5256 12.085 68.6187 11.1763 68.6187 11.1763V9.27793C68.6187 9.27793 66.7689 10.1217 65.5358 9.86206C64.3189 9.61867 63.7996 8.64513 63.7023 7.6229H68.6187C68.6674 4.1506 67.8723 2.0088 64.9517 2.0737L64.9354 2.08993ZM66.3146 6.03278H63.6212C63.7347 4.8483 64.1891 3.7774 65.049 3.7774C66.4282 3.7774 66.3146 6.03278 66.3146 6.03278Z" fill="#1F3134"/>
<path d="M47.5577 10.5438C47.9958 12.0041 49.6021 11.8256 50.5757 11.4524V9.74873C50.5757 9.74873 49.667 10.1381 49.667 9.27818V4.99459C49.667 3.87501 49.3425 2.70676 47.8173 2.26866C46.2921 1.83057 44.637 2.23621 43.485 2.73921V4.62139C43.485 4.62139 44.8155 3.7452 46.0973 3.76143C46.9249 3.76143 47.4603 4.06972 47.4603 5.05949V5.44891C47.4603 5.44891 47.1845 5.44891 46.9735 5.44891C46.1947 5.46513 44.7668 5.64362 43.7771 6.63339C43.128 7.26619 42.7873 8.0937 42.7873 9.00235C42.7873 9.74873 43.0956 10.8359 43.9555 11.3551C44.7668 11.8419 46.3407 11.9717 47.5577 10.5276V10.5438ZM45.4808 7.62316C45.8215 7.34732 46.3245 7.20129 47.0222 7.20129H47.4603V8.96989C46.7788 9.71628 46.0162 9.91099 45.5457 9.65138C45.1076 9.40799 44.994 8.9699 44.994 8.62915C44.994 8.22351 45.1563 7.88277 45.4808 7.60693V7.62316Z" fill="#1F3134"/>
<path d="M57.5041 2.26882L57.3093 2.98275C56.563 2.25259 55.8815 2.09033 55.1513 2.09033C54.0966 2.09033 53.4963 2.39862 52.8797 3.03143C52.2631 3.648 51.7439 4.86494 51.7439 6.2928C51.7439 7.72067 52.3118 9.27834 53.5612 9.81379C54.8106 10.3492 56.4332 10.1221 57.2607 8.64554V9.37569C57.2607 10.3168 57.0822 11.1768 55.6381 11.3715C54.194 11.5662 52.6039 10.7711 52.6039 10.7711V12.6857C53.3016 12.9291 55.8004 13.6593 57.6339 12.7669C59.4674 11.8907 59.5323 9.73266 59.5323 8.28857V2.26882H57.5041ZM57.2607 6.99051C56.7577 7.75312 55.7354 8.40215 54.9242 7.94783C54.1615 7.52596 54.1453 6.48751 54.1453 6.19545C54.1453 5.44906 54.3238 4.63778 54.7944 4.151C55.2649 3.66423 56.2871 3.42084 57.2607 4.50797V7.00674V6.99051Z" fill="#1F3134"/>
<path d="M7.2529 22.0639C5.72768 22.0315 4.64056 22.8103 4.5432 24.3193C4.44585 25.8283 5.77636 26.5585 8.35625 27.3373C11.861 28.3757 14.3111 30.5824 14.3111 34.071C14.3111 37.5595 12.0882 40.5937 7.56119 40.7884C4.17001 40.9345 1.03844 39.247 0.0162201 36.6022L3.4074 34.8985C4.44585 36.3426 5.66278 37.0727 7.30158 37.0727C9.36225 37.0727 10.3033 35.5962 10.3033 34.2657C10.3033 32.7567 8.8268 31.4586 5.67901 30.5175C1.7037 29.3331 0.697701 26.8343 0.827507 24.3842C0.973539 21.4798 2.98553 18.478 7.23668 18.478C9.50828 18.478 11.6501 19.6463 12.9644 21.4149L10.352 23.6703C10.352 23.6703 9.50828 22.1288 7.26913 22.0801L7.2529 22.0639Z" fill="#1F3134"/>
<path d="M15.0899 24.6923H17.4264V21.2524H20.9961V24.6923H23.8032V28.4404H20.9961V34.7036C20.9961 36.2775 21.2719 36.9427 22.6025 36.9427H23.8032V40.48H22.2293C18.8381 40.48 17.4264 39.4091 17.4264 35.3526V28.4567H15.0899V24.6923Z" fill="#1F3134"/>
<path d="M31.1048 31.0206H33.8794V30.112C33.8794 28.3434 33.1167 27.7755 31.3806 27.7755C30.4719 27.7755 29.3686 28.3434 28.8331 29.2845L25.9125 27.2563C27.454 25.1469 28.9954 24.4492 31.7051 24.4492C35.3234 24.4492 37.3679 25.6337 37.3841 30.1445V40.4803H33.8794V39.0848C33.3115 40.1557 32.4839 40.7561 30.8451 40.7561C27.9245 40.7561 25.9125 39.0199 25.8963 35.8072C25.8963 32.4647 28.1354 31.0206 31.0885 31.0044L31.1048 31.0206ZM33.8794 33.9737H31.5266C30.0663 33.9737 29.4173 34.5092 29.4173 35.7423C29.4173 36.943 30.2286 37.5109 31.4617 37.5109C33.0843 37.5109 33.8794 36.7159 33.8794 34.5741V33.9737Z" fill="#1F3134"/>
<path d="M47.5252 22.2746H46.8437C45.7566 22.2746 45.2536 23.0859 45.2536 24.4813V24.7085H47.9309V28.4566H45.2698V40.4637H41.7164V28.4566H39.3799V24.7085H41.7164V23.8648C41.7164 19.8245 43.9393 18.7212 46.503 18.7212H47.5577V22.2746H47.5252Z" fill="#1F3134"/>
<path d="M58.1693 22.2746H57.4878C56.4007 22.2746 55.8977 23.0859 55.8977 24.4813V24.7085H58.5749V28.4566H55.9139V40.4637H52.3605V28.4566H50.024V24.7085H52.3605V23.8648C52.3605 19.8245 54.5834 18.7212 57.1471 18.7212H58.2017V22.2746H58.1693Z" fill="#1F3134"/>
<path d="M61.3171 18.7051H65.195V22.6155H61.3171V18.7051ZM61.4631 24.6924H65.049V40.4476H61.4631V24.6924Z" fill="#1F3134"/>
<path d="M68.4727 24.6925H71.9774V26.0067C72.5129 25.2117 73.6324 24.4004 75.2063 24.4004C78.0458 24.4004 80.3499 25.9094 80.3499 30.5824V40.4477H76.7965V31.2152C76.7965 28.7489 76.0014 27.8727 74.5411 27.8727C72.8861 27.8727 72.0748 29.1059 72.0748 31.1828V40.4477H68.4889V24.6925H68.4727Z" fill="#1F3134"/>
<path d="M91.3996 24.6762H94.9693V40.1231C94.9693 44.6501 92.0324 46.4999 88.8035 46.4999C86.9862 46.4999 84.0494 45.6886 82.8487 43.7902L85.7693 41.7457C86.2074 42.6057 87.1972 43.2385 88.4628 43.2385C90.3936 43.2385 91.3996 42.3298 91.3996 40.1231V39.6201C90.637 40.3503 89.6635 40.7235 88.3979 40.7235C84.7146 40.7235 82.8324 37.8029 82.8324 33.6004V31.4586C82.8324 26.8505 85.0391 24.4004 88.3816 24.4004C89.6473 24.4004 90.6208 24.7736 91.3834 25.5037V24.6925L91.3996 24.6762ZM91.4159 33.6815V31.702C91.4159 29.187 90.6857 27.7916 88.9171 27.7916C87.1485 27.7916 86.4183 29.187 86.4183 31.702V33.3408C86.4183 35.6124 86.9862 37.3161 88.9171 37.3161C90.8317 37.3161 91.4159 35.7746 91.4159 33.6815Z" fill="#1F3134"/>
</g>
<defs>
<clipPath id="clip0_1627_243">
<rect width="94.9693" height="46" fill="white" transform="translate(0 0.5)"/>
</clipPath>
</defs>
</svg>
